
<svg width="500" height="470" viewBox="0 0 500 470" fill="none" xmlns="http://www.w3.org/2000/svg">
<path d="M275.398 468.363C220.428 472.873 174.878 464.223 129.388 440.603C99.3879 425.043 69.9779 401.153 51.0279 376.973C47.5779 372.573 44.2179 368.303 43.5679 367.473C39.9579 362.913 30.6679 347.893 25.9379 338.973C1.45793 292.813 -6.09207 237.943 4.98793 186.793C13.7679 146.243 34.6579 107.473 64.2879 76.7231C91.5679 48.3831 123.778 28.0031 163.898 13.6731C178.528 8.44313 197.178 4.11313 217.398 1.26313C230.858 -0.636869 270.638 -0.336869 284.688 1.78313C332.118 8.90313 376.468 27.4331 410.338 54.2831C419.678 61.6931 439.538 81.0931 447.378 90.4731C466.328 113.143 482.518 143.823 490.968 173.043C508.998 235.463 498.458 303.233 462.188 357.973C451.408 374.243 444.298 382.793 429.738 397.043C410.038 416.313 388.528 431.663 365.358 442.973C346.308 452.273 321.608 460.883 304.898 464.043C300.778 464.823 295.378 465.873 292.898 466.373C290.418 466.883 282.548 467.773 275.398 468.363ZM240.378 355.843L252.358 361.393L256.378 359.043C258.588 357.743 264.448 354.473 269.398 351.763C277.748 347.203 325.978 320.123 371.898 294.213C382.628 288.163 392.188 282.523 393.148 281.683C394.728 280.313 394.898 277.693 394.898 254.483V228.813L391.148 226.383C387.948 224.323 387.328 223.323 386.898 219.523L386.398 215.073L339.398 193.863L339.138 142.663C338.928 100.613 338.638 91.4731 337.538 91.4731C336.798 91.4731 334.668 92.5031 332.798 93.7631L329.398 96.0531L329.338 146.233C329.308 173.843 329.088 196.623 328.838 196.863C328.048 197.643 316.908 192.483 314.768 190.343L312.698 188.273L316.048 188.993C317.888 189.393 320.648 190.353 322.178 191.133C323.708 191.913 325.398 192.283 325.928 191.953C326.538 191.583 326.898 170.103 326.898 134.293V77.2431L324.648 77.7231C323.408 77.9931 321.608 78.5431 320.648 78.9531C319.068 79.6131 318.898 78.9431 318.898 72.0831C318.898 66.1031 318.588 64.4731 317.448 64.4731C316.648 64.4731 301.908 71.5131 284.698 80.1031C267.478 88.7031 246.988 98.8031 239.148 102.543L224.898 109.343V169.623L228.848 171.293C232.408 172.803 232.828 173.373 233.098 176.973C233.378 180.673 233.778 181.163 238.398 183.473C244.508 186.533 256.438 192.053 276.898 201.283C285.418 205.123 299.598 211.753 308.398 216.013C317.198 220.263 325.748 224.103 327.398 224.533C329.048 224.953 339.168 229.333 349.898 234.253C366.238 241.743 369.458 243.563 369.738 245.493C370.058 247.673 369.988 247.703 368.358 246.073C367.418 245.133 366.008 244.603 365.228 244.903C364.448 245.203 362.038 244.323 359.878 242.963C357.708 241.593 355.508 240.473 354.978 240.473C353.598 240.473 349.838 238.733 346.398 236.493C342.018 233.643 336.808 231.413 335.868 231.993C335.428 232.263 334.378 231.813 333.548 230.983C332.718 230.153 331.278 229.473 330.338 229.473C328.568 229.473 307.128 219.083 305.448 217.413C304.928 216.893 303.468 216.473 302.198 216.473C300.938 216.473 299.898 215.993 299.898 215.413C299.898 214.833 299.488 214.613 298.988 214.923C298.478 215.233 297.918 215.143 297.738 214.733C297.388 213.943 288.138 209.163 286.398 208.873C285.848 208.783 284.588 208.653 283.588 208.593C282.598 208.523 282.048 208.043 282.368 207.523C282.688 207.003 281.368 206.273 279.428 205.913C277.488 205.553 275.898 204.823 275.898 204.303C275.898 203.783 275.448 203.633 274.898 203.973C274.348 204.313 273.898 204.113 273.898 203.533C273.898 202.953 272.968 202.473 271.838 202.473C270.538 202.473 270.038 202.053 270.498 201.323C270.928 200.613 270.768 200.433 270.068 200.873C269.438 201.253 266.968 200.423 264.578 199.023C262.188 197.623 259.988 196.713 259.698 197.003C259.408 197.293 256.908 196.393 254.138 195.003C247.728 191.773 244.898 191.693 244.908 194.723C244.928 196.693 247.848 198.283 268.158 207.393C280.938 213.123 291.958 218.243 292.648 218.763C294.718 220.343 294.098 221.333 289.648 223.563C287.308 224.743 284.498 226.493 283.398 227.463C282.298 228.433 273.388 233.373 263.598 238.443C249.608 245.693 245.238 247.523 243.218 247.013C239.948 246.193 213.248 234.273 205.648 230.243L199.898 227.193V182.333C199.898 180.083 199.898 177.933 199.898 175.893C199.908 146.483 199.908 138.113 197.858 137.573C197.038 137.363 195.888 138.383 194.288 139.813C194.018 140.063 193.718 140.323 193.408 140.593L189.858 143.713L190.128 187.593C190.308 216.523 190.058 231.363 189.398 231.143C188.748 230.923 188.308 211.633 188.138 176.643C187.998 146.853 187.548 122.483 187.138 122.503C186.728 122.523 185.528 123.193 184.458 124.003C180.618 126.903 179.898 125.953 179.898 117.973C179.898 112.983 179.508 110.473 178.748 110.473C178.118 110.473 172.938 113.493 167.248 117.193L156.898 123.903V232.433L160.898 234.473C164.478 236.303 164.898 236.903 164.908 240.243L164.918 243.973L190.658 255.693C204.818 262.133 224.248 271.023 233.838 275.443C243.428 279.853 251.698 283.473 252.228 283.473C252.748 283.473 259.968 279.813 268.288 275.343C276.598 270.863 286.548 265.523 290.398 263.453C294.248 261.393 303.478 256.453 310.898 252.473C318.318 248.493 324.958 244.783 325.648 244.233C326.338 243.683 326.898 241.223 326.898 238.763C326.898 236.313 327.238 234.463 327.648 234.663C334.908 238.113 339.178 240.033 348.398 243.983C354.448 246.583 360.068 249.353 360.898 250.153C362.228 251.433 362.108 251.823 359.898 253.493C358.518 254.533 356.278 256.243 354.898 257.283C352.718 258.933 305.758 286.593 259.468 313.493L244.528 322.173L235.968 318.213C226.558 313.853 201.508 302.123 187.398 295.463C182.448 293.123 172.288 288.403 164.818 284.973C157.348 281.543 143.508 275.003 134.068 270.443L116.898 262.133V249.363C116.898 242.343 116.558 236.383 116.138 236.123C115.718 235.863 113.578 236.873 111.388 238.363L107.398 241.063L107.118 253.273C106.958 260.283 106.428 265.473 105.868 265.473C105.268 265.473 104.898 257.033 104.898 243.533C104.898 229.983 104.518 221.353 103.898 220.973C103.348 220.633 102.898 220.763 102.898 221.253C102.898 222.023 98.6779 224.473 97.3479 224.473C97.0979 224.473 96.8979 221.093 96.8979 216.973C96.8979 211.043 96.5879 209.473 95.4279 209.473C94.6179 209.473 88.9979 212.283 82.9479 215.723L71.9279 221.973L71.9179 245.733L71.8979 269.493L75.8979 271.093C79.5779 272.563 79.8979 272.993 79.8979 276.463C79.8979 278.533 80.4579 280.683 81.1479 281.243C82.1479 282.053 123.278 301.363 192.898 333.693C196.468 335.353 205.918 339.763 213.898 343.503C221.878 347.233 233.788 352.783 240.378 355.843ZM259.898 374.913C261.278 375.673 263.168 376.333 264.118 376.383C265.058 376.433 272.038 372.943 279.618 368.623C287.198 364.303 301.278 356.353 310.898 350.933C320.518 345.523 338.068 335.643 349.898 328.963C361.728 322.293 379.378 312.363 389.118 306.903L406.848 296.973L406.868 269.733L406.898 242.503L403.278 240.983C402.968 240.863 402.678 240.733 402.408 240.613C400.668 239.873 399.488 239.373 398.668 239.723C396.778 240.533 396.858 245.933 396.668 263.623L396.398 287.773L388.398 292.633C383.998 295.293 378.378 298.473 375.898 299.683C373.418 300.893 370.948 302.263 370.398 302.723C369.328 303.623 368.198 304.263 354.318 311.843C349.408 314.513 344.178 317.553 342.688 318.593C341.198 319.623 339.288 320.473 338.438 320.473C337.588 320.473 336.898 320.873 336.898 321.353C336.898 321.843 336.108 322.493 335.148 322.793C333.148 323.433 320.978 330.173 319.258 331.593C317.368 333.153 308.488 337.463 307.148 337.473C306.458 337.473 305.898 337.833 305.898 338.283C305.898 338.723 303.088 340.583 299.648 342.403C296.208 344.233 292.728 346.283 291.898 346.963C291.068 347.633 287.918 349.533 284.898 351.183C281.878 352.823 274.818 356.713 269.228 359.823C259.248 365.363 252.958 367.003 251.388 364.453C251.038 363.893 250.338 363.703 249.828 364.013C249.318 364.333 248.898 364.083 248.898 363.473C248.898 362.863 248.448 362.633 247.888 362.973C247.338 363.323 246.628 362.923 246.308 362.103C245.988 361.273 245.098 360.843 244.318 361.143C243.538 361.443 242.898 361.193 242.898 360.583C242.898 359.973 241.998 359.473 240.898 359.473C239.798 359.473 238.898 359.033 238.898 358.503C238.898 357.973 238.298 357.763 237.558 358.053C236.818 358.333 235.638 357.873 234.938 357.023C234.228 356.173 232.828 355.473 231.828 355.473C230.818 355.473 229.578 354.733 229.068 353.823C228.528 352.853 227.488 352.413 226.568 352.763C225.428 353.213 225.168 352.933 225.618 351.753C226.078 350.573 225.818 350.293 224.688 350.723C223.828 351.053 222.068 350.573 220.758 349.663C219.458 348.753 218.298 348.093 218.168 348.203C218.038 348.303 216.468 347.773 214.678 347.023C212.888 346.273 211.008 345.903 210.508 346.213C209.998 346.523 209.908 346.263 210.298 345.623C210.698 344.983 210.438 344.443 209.708 344.403C206.368 344.213 203.368 343.323 203.068 342.443C202.878 341.913 202.098 341.473 201.318 341.473C200.538 341.473 199.898 341.023 199.898 340.473C199.898 339.923 198.998 339.473 197.898 339.473C196.798 339.473 195.898 339.043 195.898 338.513C195.898 337.983 193.758 336.903 191.148 336.113C184.978 334.243 180.738 331.973 181.668 331.033C182.068 330.623 181.718 330.393 180.898 330.533C180.078 330.673 177.728 330.033 175.678 329.123C173.638 328.213 171.468 327.473 170.868 327.473C170.268 327.473 170.028 327.083 170.318 326.593C170.618 326.113 168.728 325.153 166.128 324.443C163.528 323.743 160.688 322.563 159.818 321.823C158.948 321.083 157.528 320.473 156.648 320.473C155.778 320.473 154.918 320.083 154.728 319.603C154.368 318.653 140.718 312.473 138.978 312.473C138.388 312.473 137.898 312.063 137.898 311.553C137.898 311.043 136.548 310.333 134.898 309.973C133.248 309.613 131.898 308.913 131.898 308.423C131.898 307.933 131.218 307.793 130.398 308.113C129.578 308.423 128.898 308.263 128.898 307.743C128.898 307.213 126.988 306.223 124.648 305.533C122.308 304.843 119.048 303.463 117.398 302.463C112.308 299.383 100.508 293.393 98.3979 292.833C94.3679 291.753 92.8379 291.343 92.2579 291.903C91.9079 292.253 91.9179 292.963 91.9279 294.103C91.9679 296.703 92.6779 297.293 99.6779 300.413C103.928 302.303 113.858 306.913 121.758 310.663C129.658 314.413 136.278 317.473 136.478 317.473C136.668 317.473 144.608 321.133 154.118 325.603C163.618 330.073 176.058 335.923 181.758 338.603C187.458 341.283 192.268 343.473 192.448 343.473C192.628 343.473 197.418 345.673 203.088 348.353C214.048 353.543 218.648 355.683 242.398 366.623C250.648 370.423 258.518 374.153 259.898 374.913ZM218.598 278.723C242.138 289.493 262.488 298.343 263.818 298.393C265.148 298.433 271.218 295.823 277.318 292.593C296.768 282.263 307.018 276.783 322.898 268.213L338.398 259.843L338.688 251.323L338.968 242.813L334.858 240.953C330.028 238.783 328.938 239.623 328.918 245.573C328.908 247.723 328.198 249.773 327.148 250.703C325.248 252.363 299.538 266.473 298.398 266.473C298.018 266.473 296.388 267.413 294.778 268.563C293.168 269.703 288.598 272.333 284.618 274.393C280.648 276.453 273.898 280.053 269.618 282.383C263.188 285.893 260.058 287.643 256.888 287.743C253.808 287.843 250.678 286.383 244.428 283.463L243.898 283.223C241.418 282.063 238.948 281.083 238.398 281.023C236.128 280.813 232.898 279.273 232.898 278.403C232.898 277.893 232.028 277.473 230.958 277.473C229.888 277.473 228.738 277.013 228.388 276.453C228.038 275.893 227.398 275.663 226.958 275.933C226.518 276.213 225.128 275.543 223.878 274.453C221.388 272.293 220.438 271.913 221.388 273.463C221.738 274.033 221.338 274.193 220.448 273.853C219.598 273.523 218.898 272.883 218.898 272.433C218.898 271.983 217.888 271.303 216.648 270.933C214.078 270.153 209.238 268.143 203.288 265.383C201.028 264.333 198.638 263.473 197.978 263.473C197.318 263.473 197.078 262.993 197.438 262.403C197.798 261.813 197.488 261.473 196.748 261.643C196.008 261.803 191.998 260.303 187.848 258.293C177.888 253.493 176.478 253.283 176.098 256.563C175.808 259.053 177.358 259.863 218.598 278.723ZM301.898 174.993C301.898 176.373 293.338 173.223 280.488 167.123L268.778 161.553L269.398 152.973L280.398 147.323C286.448 144.213 291.958 141.623 292.648 141.573C293.598 141.493 293.898 144.983 293.898 155.953V170.433L297.898 172.473C300.098 173.593 301.898 174.733 301.898 174.993ZM259.108 155.223C259.268 160.863 259.138 165.473 258.818 165.473C257.208 165.473 256.898 163.063 256.938 150.553L256.988 136.973L278.688 126.703C290.628 121.063 300.738 116.443 301.148 116.453C301.558 116.463 301.898 118.163 301.898 120.233C301.898 123.773 301.658 124.063 297.648 125.293C295.308 126.023 292.278 127.353 290.898 128.253C289.518 129.153 283.268 132.263 276.988 135.163C270.718 138.063 264.058 141.453 262.208 142.703L258.818 144.973L259.108 155.223Z" fill="#010101"/>
<path d="M259.899 374.913C258.519 374.153 250.649 370.423 242.399 366.623C218.649 355.683 214.049 353.543 203.089 348.353C197.419 345.673 192.629 343.473 192.449 343.473C192.269 343.473 187.459 341.283 181.759 338.603C176.059 335.923 163.619 330.073 154.119 325.603C144.609 321.133 136.669 317.473 136.479 317.473C136.279 317.473 129.659 314.413 121.759 310.663C113.859 306.913 103.929 302.303 99.6791 300.413C92.6791 297.293 91.9691 296.703 91.9291 294.103C91.9191 292.963 91.9091 292.253 92.2591 291.903C92.8391 291.343 94.3691 291.753 98.3991 292.833C100.509 293.393 112.309 299.383 117.399 302.463C119.049 303.463 122.309 304.843 124.649 305.533C126.989 306.223 128.899 307.213 128.899 307.743C128.899 308.263 129.579 308.423 130.399 308.113C131.219 307.793 131.899 307.933 131.899 308.423C131.899 308.913 133.249 309.613 134.899 309.973C136.549 310.333 137.899 311.043 137.899 311.553C137.899 312.063 138.389 312.473 138.979 312.473C140.719 312.473 154.369 318.653 154.729 319.603C154.919 320.083 155.779 320.473 156.649 320.473C157.529 320.473 158.949 321.083 159.819 321.823C160.689 322.563 163.529 323.743 166.129 324.443C168.729 325.153 170.619 326.113 170.319 326.593C170.029 327.083 170.269 327.473 170.869 327.473C171.469 327.473 173.639 328.213 175.679 329.123C177.729 330.033 180.079 330.673 180.899 330.533C181.719 330.393 182.069 330.623 181.669 331.033C180.739 331.973 184.979 334.243 191.149 336.113C193.759 336.903 195.899 337.983 195.899 338.513C195.899 339.043 196.799 339.473 197.899 339.473C198.999 339.473 199.899 339.923 199.899 340.473C199.899 341.023 200.539 341.473 201.319 341.473C202.099 341.473 202.879 341.913 203.069 342.443C203.369 343.323 206.369 344.213 209.709 344.403C210.439 344.443 210.699 344.983 210.299 345.623C209.909 346.263 209.999 346.523 210.509 346.213C211.009 345.903 212.889 346.273 214.679 347.023C216.469 347.773 218.039 348.303 218.169 348.203C218.299 348.093 219.459 348.753 220.759 349.663C222.069 350.573 223.829 351.053 224.689 350.723C225.819 350.293 226.079 350.573 225.619 351.753C225.169 352.933 225.429 353.213 226.569 352.763C227.489 352.413 228.529 352.853 229.069 353.823C229.579 354.733 230.819 355.473 231.829 355.473C232.829 355.473 234.229 356.173 234.939 357.023C235.639 357.873 236.819 358.333 237.559 358.053C238.299 357.763 238.899 357.973 238.899 358.503C238.899 359.033 239.799 359.473 240.899 359.473C241.999 359.473 242.899 359.973 242.899 360.583C242.899 361.193 243.539 361.443 244.319 361.143C245.099 360.843 245.989 361.273 246.309 362.103C246.629 362.923 247.339 363.323 247.889 362.973C248.449 362.633 248.899 362.863 248.899 363.473C248.899 364.083 249.319 364.333 249.829 364.013C250.339 363.703 251.039 363.893 251.389 364.453C252.959 367.003 259.249 365.363 269.229 359.823C274.819 356.713 281.879 352.823 284.899 351.183C287.919 349.533 291.069 347.633 291.899 346.963C292.729 346.283 296.209 344.233 299.649 342.403C303.089 340.583 305.899 338.723 305.899 338.283C305.899 337.833 306.459 337.473 307.149 337.473C308.489 337.463 317.369 333.153 319.259 331.593C320.979 330.173 333.149 323.433 335.149 322.793C336.109 322.493 336.899 321.843 336.899 321.353C336.899 320.873 337.589 320.473 338.439 320.473C339.289 320.473 341.199 319.623 342.689 318.593C344.179 317.553 349.409 314.513 354.319 311.843C368.199 304.263 369.329 303.623 370.399 302.723C370.949 302.263 373.419 300.893 375.899 299.683C378.379 298.473 383.999 295.293 388.399 292.633L396.399 287.773L396.669 263.623C396.859 245.933 396.779 240.533 398.669 239.723C399.489 239.373 400.669 239.873 402.409 240.613C402.679 240.733 402.969 240.863 403.279 240.983L406.899 242.503L406.869 269.733L406.849 296.973L389.119 306.903C379.379 312.363 361.729 322.293 349.899 328.963C338.069 335.643 320.519 345.523 310.899 350.933C301.279 356.353 287.199 364.303 279.619 368.623C272.039 372.943 265.059 376.433 264.119 376.383C263.169 376.333 261.279 375.673 259.899 374.913ZM218.599 278.723C177.359 259.863 175.809 259.053 176.099 256.563C176.479 253.283 177.889 253.493 187.849 258.293C191.999 260.303 196.009 261.803 196.749 261.643C197.489 261.473 197.799 261.813 197.439 262.403C197.079 262.993 197.319 263.473 197.979 263.473C198.639 263.473 201.029 264.333 203.289 265.383C209.239 268.143 214.079 270.153 216.649 270.933C217.889 271.303 218.899 271.983 218.899 272.433C218.899 272.883 219.599 273.523 220.449 273.853C221.339 274.193 221.739 274.033 221.389 273.463C220.439 271.913 221.389 272.293 223.879 274.453C225.129 275.543 226.519 276.213 226.959 275.933C227.399 275.663 228.039 275.893 228.389 276.453C228.739 277.013 229.889 277.473 230.959 277.473C232.029 277.473 232.899 277.893 232.899 278.403C232.899 279.273 236.129 280.813 238.399 281.023C238.949 281.083 241.419 282.063 243.899 283.223L244.429 283.463C250.679 286.383 253.809 287.843 256.889 287.743C260.059 287.643 263.189 285.893 269.619 282.383C273.899 280.053 280.649 276.453 284.619 274.393C288.599 272.333 293.169 269.703 294.779 268.563C296.389 267.413 298.019 266.473 298.399 266.473C299.539 266.473 325.249 252.363 327.149 250.703C328.199 249.773 328.909 247.723 328.919 245.573C328.939 239.623 330.029 238.783 334.859 240.953L338.969 242.813L338.689 251.323L338.399 259.843L322.899 268.213C307.019 276.783 296.769 282.263 277.319 292.593C271.219 295.823 265.149 298.433 263.819 298.393C262.489 298.343 242.139 289.493 218.599 278.723ZM351.059 199.123C344.759 196.383 340.299 194.563 339.719 194.543C338.479 194.493 338.059 195.273 338.119 197.483C338.169 199.143 337.949 200.753 337.649 201.063C337.339 201.373 334.679 200.503 331.739 199.133C328.799 197.763 322.129 194.663 316.899 192.233C311.669 189.803 306.779 187.073 306.029 186.143C303.539 183.123 308.519 184.153 317.129 188.463C321.389 190.603 325.279 192.123 325.949 191.933C325.939 191.943 325.939 191.953 325.929 191.953C325.399 192.283 323.709 191.913 322.179 191.133C320.649 190.353 317.889 189.393 316.049 188.993L312.699 188.273L314.769 190.343C316.909 192.483 328.049 197.643 328.839 196.863C329.089 196.623 329.309 173.843 329.339 146.233L329.399 96.0527L332.799 93.7626C334.669 92.5026 336.799 91.4727 337.539 91.4727C338.639 91.4727 338.929 100.613 339.139 142.663L339.399 193.863L351.059 199.123ZM216.679 235.573C211.149 233.133 206.409 231.103 204.649 230.443L199.899 228.643V232.663C199.899 236.113 199.649 236.583 198.149 235.933C197.189 235.523 194.489 234.523 192.149 233.713L187.899 232.233V177.353C187.899 152.263 187.669 130.973 187.349 124.513C187.689 130.923 188.019 151.913 188.139 176.643C188.309 211.633 188.749 230.923 189.399 231.143C190.059 231.363 190.309 216.523 190.129 187.593L189.859 143.713L193.409 140.593C193.719 140.323 194.019 140.063 194.289 139.813C195.889 138.383 197.039 137.363 197.859 137.573C199.909 138.113 199.909 146.483 199.899 175.893C199.899 177.933 199.899 180.083 199.899 182.333V227.193L205.649 230.243C207.959 231.473 212.029 233.423 216.679 235.573ZM301.899 174.993C301.899 174.733 300.099 173.593 297.899 172.473L293.899 170.433V155.953C293.899 144.983 293.599 141.493 292.649 141.573C291.959 141.623 286.449 144.213 280.399 147.323L269.399 152.973L268.779 161.553L280.489 167.123L280.629 167.193C275.579 165.083 271.349 163.463 270.649 163.463C269.309 163.473 268.899 164.313 268.899 167.083C268.899 170.123 268.619 170.573 267.149 169.973C266.189 169.583 264.049 168.803 262.399 168.223C257.159 166.403 256.909 166.263 256.939 153.043C256.949 163.393 257.319 165.473 258.819 165.473C259.139 165.473 259.269 160.863 259.109 155.223L258.819 144.973L262.209 142.703C264.059 141.453 270.719 138.063 276.989 135.163C283.269 132.263 289.519 129.153 290.899 128.253C292.279 127.353 295.309 126.023 297.649 125.293C301.659 124.063 301.899 123.773 301.899 120.233C301.899 118.163 301.559 116.463 301.149 116.453C300.739 116.443 290.629 121.063 278.689 126.703L258.229 136.383L279.959 126.063C292.589 120.063 303.069 115.343 303.249 115.563C303.429 115.793 303.199 120.473 302.739 125.973C302.009 134.603 301.589 136.203 299.649 137.693C298.409 138.653 296.839 139.443 296.149 139.453C295.209 139.463 294.899 143.223 294.899 154.823V170.173L298.899 171.973C301.099 172.963 302.899 174.383 302.899 175.123C302.899 176.773 301.219 176.723 297.899 174.983C296.949 174.483 295.739 173.893 294.359 173.243C299.119 175.103 301.899 175.783 301.899 174.993ZM312.469 221.393C307.729 219.133 303.859 217.473 303.249 217.473C302.509 217.473 301.899 218.373 301.899 219.473C301.899 221.753 299.029 222.193 297.039 220.223C296.029 219.223 295.589 219.303 294.839 220.633C294.019 222.083 289.779 224.643 272.849 233.553C278.469 230.513 282.669 228.103 283.399 227.463C284.499 226.493 287.309 224.743 289.649 223.563C294.099 221.333 294.719 220.343 292.649 218.763C291.959 218.243 280.939 213.123 268.159 207.393C247.849 198.283 244.929 196.693 244.909 194.723C244.899 191.693 247.729 191.773 254.139 195.003C256.909 196.393 259.409 197.293 259.699 197.003C259.989 196.713 262.189 197.623 264.579 199.023C266.969 200.423 269.439 201.253 270.069 200.873C270.769 200.433 270.929 200.613 270.499 201.323C270.039 202.053 270.539 202.473 271.839 202.473C272.969 202.473 273.899 202.953 273.899 203.533C273.899 204.113 274.349 204.313 274.899 203.973C275.449 203.633 275.899 203.783 275.899 204.303C275.899 204.823 277.489 205.553 279.429 205.913C281.369 206.273 282.689 207.003 282.369 207.523C282.049 208.043 282.599 208.523 283.589 208.593C284.589 208.653 285.849 208.783 286.399 208.873C288.139 209.163 297.389 213.943 297.739 214.733C297.919 215.143 298.479 215.233 298.989 214.923C299.489 214.613 299.899 214.833 299.899 215.413C299.899 215.993 300.939 216.473 302.199 216.473C303.469 216.473 304.929 216.893 305.449 217.413C306.019 217.983 308.879 219.563 312.469 221.393ZM158.169 281.893C152.959 279.473 146.619 276.493 141.559 274.073C133.939 270.443 127.289 267.473 126.769 267.473C126.249 267.473 124.019 266.553 121.829 265.433C117.059 263.003 116.089 263.383 116.679 267.433C117.229 271.203 116.179 271.283 109.149 268.013L103.899 265.563V243.903C103.899 242.513 103.899 241.203 103.899 239.983C103.909 227.393 103.919 223.483 102.499 222.873C102.049 222.683 101.469 222.813 100.689 223.113C101.879 222.413 102.899 221.633 102.899 221.253C102.899 220.763 103.349 220.633 103.899 220.973C104.519 221.353 104.899 229.983 104.899 243.533C104.899 257.033 105.269 265.473 105.869 265.473C106.429 265.473 106.959 260.283 107.119 253.273L107.399 241.063L111.389 238.363C113.579 236.873 115.719 235.863 116.139 236.123C116.559 236.383 116.899 242.343 116.899 249.363V262.133L134.069 270.443C141.149 273.863 150.689 278.393 158.169 281.893ZM345.809 232.383C347.389 233.103 349.009 233.833 350.649 234.583L370.899 243.863V248.663C370.899 251.313 370.649 253.473 370.349 253.473C370.049 253.473 368.459 252.783 366.829 251.943C364.009 250.483 363.749 250.523 361.629 252.803C360.399 254.123 349.729 260.843 337.899 267.723C330.809 271.843 322.269 276.823 312.249 282.673C336.079 268.683 353.589 258.273 354.899 257.283C356.279 256.243 358.519 254.533 359.899 253.493C362.109 251.823 362.229 251.433 360.899 250.153C360.069 249.353 354.449 246.583 348.399 243.983C339.179 240.033 334.909 238.113 327.649 234.663C327.239 234.463 326.899 236.313 326.899 238.763C326.899 241.163 326.359 243.563 325.699 244.193C326.459 243.473 326.899 240.453 326.899 235.863V228.503L320.449 225.313C325.279 227.593 329.589 229.473 330.339 229.473C331.279 229.473 332.719 230.153 333.549 230.983C334.379 231.813 335.429 232.263 335.869 231.993C336.809 231.413 342.019 233.643 346.399 236.493C349.839 238.733 353.599 240.473 354.979 240.473C355.509 240.473 357.709 241.593 359.879 242.963C362.039 244.323 364.449 245.203 365.229 244.903C366.009 244.603 367.419 245.133 368.359 246.073C369.989 247.703 370.059 247.673 369.739 245.493C369.459 243.563 366.239 241.743 349.899 234.253C348.519 233.613 347.149 232.993 345.809 232.383ZM251.839 283.363C252.849 283.273 260.139 279.723 268.289 275.343C259.969 279.813 252.749 283.473 252.229 283.473C252.169 283.473 252.039 283.433 251.839 283.363ZM261.979 312.033C259.209 313.653 256.379 315.303 253.499 316.993L244.589 322.203L244.529 322.173L235.999 318.223C228.159 314.603 214.159 308.053 201.539 302.113C214.539 308.223 229.239 315.103 235.969 318.213L244.529 322.173L259.469 313.493C260.299 313.003 261.139 312.523 261.979 312.033ZM326.369 187.173C326.689 178.463 326.899 158.523 326.899 134.293C326.899 160.443 326.709 178.953 326.369 187.173ZM256.229 242.203C248.359 246.183 245.249 247.333 243.469 247.063C245.159 247.303 248.349 246.133 256.229 242.203ZM97.0491 222.573C96.9291 221.493 96.8991 219.753 96.8991 217.083C96.8991 219.253 96.9591 221.213 97.0491 222.573ZM96.8991 217.083C96.8991 211.453 96.6291 209.703 95.6491 209.493C96.6291 209.703 96.8991 211.433 96.8991 216.973C96.8991 217.013 96.8991 217.043 96.8991 217.083ZM187.139 122.503C186.779 122.523 185.829 123.033 184.899 123.683C185.839 123.023 186.789 122.523 187.139 122.503Z" fill="#4D4C4C"/>
<path d="M158.168 281.893C160.678 283.063 162.948 284.113 164.818 284.973C172.288 288.403 182.448 293.123 187.398 295.463C191.428 297.363 196.348 299.683 201.538 302.113L201.548 302.123C214.168 308.063 228.158 314.603 235.998 318.223L244.528 322.173L244.588 322.203L253.498 316.993C256.378 315.303 259.208 313.653 261.978 312.033C279.588 301.793 297.178 291.513 312.248 282.673C322.268 276.823 330.808 271.843 337.898 267.723C349.728 260.843 360.398 254.123 361.628 252.803C363.748 250.523 364.008 250.483 366.828 251.943C368.458 252.783 370.048 253.473 370.348 253.473C370.648 253.473 370.898 251.313 370.898 248.663V243.923L371.398 244.153V254.393C371.398 260.023 371.168 264.973 370.898 265.373C370.358 266.173 353.328 276.353 345.898 280.313C343.418 281.633 340.728 283.283 339.898 283.983C339.068 284.673 333.448 288.063 327.398 291.503C312.868 299.773 308.038 302.583 291.398 312.433C257.858 332.293 253.978 334.473 252.178 334.473C251.128 334.473 247.828 333.293 244.838 331.843C241.848 330.393 233.778 326.613 226.898 323.443C220.018 320.273 209.448 315.333 203.398 312.463C197.348 309.593 179.128 301.053 162.898 293.473C146.668 285.903 126.758 276.523 118.648 272.623L104.898 266.033L109.148 268.013C116.178 271.283 117.228 271.203 116.678 267.433C116.088 263.383 117.058 263.003 121.828 265.433C124.018 266.553 126.248 267.473 126.768 267.473C127.288 267.473 133.938 270.443 141.558 274.073C146.618 276.493 152.958 279.473 158.168 281.893ZM320.648 78.9527C321.608 78.5427 323.408 77.9927 324.648 77.7227C321.818 78.8227 312.358 83.2927 301.718 88.6027C289.438 94.7227 268.938 104.823 256.148 111.043L232.898 122.363L232.908 145.163C232.908 157.713 233.208 171.063 233.558 174.843L234.118 180.743C233.408 179.873 233.238 178.823 233.098 176.973C232.828 173.373 232.408 172.803 228.848 171.293L224.898 169.623V109.343L239.148 102.543C246.988 98.8027 267.478 88.7027 284.698 80.1027C301.908 71.5127 316.648 64.4727 317.448 64.4727C318.588 64.4727 318.898 66.1027 318.898 72.0827C318.898 78.9427 319.068 79.6127 320.648 78.9527ZM216.678 235.573C227.308 240.493 240.938 246.443 243.218 247.013C243.298 247.033 243.378 247.053 243.468 247.063C245.248 247.333 248.358 246.183 256.228 242.203C258.328 241.153 260.768 239.913 263.598 238.443C266.868 236.753 270.038 235.073 272.848 233.553C289.778 224.643 294.018 222.083 294.838 220.633C295.588 219.303 296.028 219.223 297.038 220.223C299.028 222.193 301.898 221.753 301.898 219.473C301.898 218.373 302.508 217.473 303.248 217.473C303.328 217.473 303.458 217.503 303.628 217.553C303.218 218.113 302.898 221.633 302.898 225.853C302.898 231.363 302.468 234.563 301.648 235.213C300.628 236.023 278.138 248.043 257.048 259.053C255.578 259.823 254.668 260.383 253.678 260.603C251.588 261.053 249.158 259.923 240.298 255.833C239.468 255.443 238.578 255.033 237.618 254.593C233.898 252.883 230.678 251.473 230.468 251.473C230.268 251.473 226.108 249.643 221.248 247.403C211.038 242.703 205.288 240.073 195.148 235.473L188.448 232.423L192.148 233.713C194.488 234.523 197.188 235.523 198.148 235.933C199.648 236.583 199.898 236.113 199.898 232.663V228.643L204.648 230.443C206.408 231.103 211.148 233.133 216.678 235.573ZM187.138 122.503C187.208 122.523 187.278 123.223 187.348 124.513C187.648 130.683 187.878 150.333 187.898 173.913C187.868 145.243 187.518 122.463 187.098 122.643C186.658 122.823 181.488 126.123 175.608 129.973L164.928 136.973L164.918 243.973L164.908 240.243C164.908 239.233 164.868 238.473 164.718 237.863C164.708 237.833 164.698 237.813 164.698 237.793C164.658 237.663 164.628 237.543 164.578 237.433C164.138 236.283 163.138 235.613 160.898 234.473L156.898 232.433V123.903L167.248 117.193C172.938 113.493 178.118 110.473 178.748 110.473C179.508 110.473 179.898 112.983 179.898 117.973C179.898 125.953 180.618 126.903 184.458 124.003C184.598 123.893 184.748 123.793 184.898 123.683L184.908 123.673C185.838 123.023 186.778 122.523 187.138 122.503ZM351.058 199.123L386.398 215.073L386.898 219.523C387.328 223.323 387.948 224.323 391.148 226.383L392.738 227.413L383.398 223.243C377.348 220.543 368.128 216.373 362.898 213.983C345.468 206.023 341.448 204.233 334.448 201.313C330.628 199.723 326.798 197.803 325.948 197.043C324.268 195.543 304.498 186.473 302.918 186.473C302.388 186.473 298.898 185.073 295.178 183.363C291.448 181.653 283.898 178.283 278.398 175.863C272.898 173.453 265.918 170.223 262.898 168.683L261.008 167.733C261.428 167.883 261.888 168.053 262.398 168.223C264.048 168.803 266.188 169.583 267.148 169.973C268.618 170.573 268.898 170.123 268.898 167.083C268.898 164.313 269.308 163.473 270.648 163.463C271.348 163.463 275.578 165.083 280.628 167.193C286.108 169.783 290.788 171.843 294.358 173.243C295.738 173.893 296.948 174.483 297.898 174.983C300.988 176.593 302.648 176.753 302.868 175.453L302.818 181.413L313.978 186.923C319.918 189.863 325.188 192.053 325.958 191.923C325.958 191.923 325.948 191.923 325.948 191.933C325.278 192.123 321.388 190.603 317.128 188.463C308.518 184.153 303.538 183.123 306.028 186.143C306.778 187.073 311.668 189.803 316.898 192.233C322.128 194.663 328.798 197.763 331.738 199.133C334.678 200.503 337.338 201.373 337.648 201.063C337.948 200.753 338.168 199.143 338.118 197.483C338.058 195.273 338.478 194.493 339.718 194.543C340.298 194.563 344.758 196.383 351.058 199.123ZM97.0484 222.573C97.1284 223.753 97.2384 224.473 97.3484 224.473C98.0284 224.473 99.4584 223.833 100.688 223.113C101.208 222.913 101.648 222.783 102.018 222.783C100.218 223.593 95.9884 225.893 91.3684 228.583L80.8984 234.693V257.423C80.8984 277.833 81.0784 280.323 82.6484 281.693C84.1184 282.983 103.148 291.953 191.898 333.223C192.608 333.553 193.488 333.963 194.498 334.433C193.878 334.153 193.348 333.903 192.898 333.693C123.278 301.363 82.1484 282.053 81.1484 281.243C80.4584 280.683 79.8984 278.533 79.8984 276.463C79.8984 272.993 79.5784 272.563 75.8984 271.093L71.8984 269.493L71.9184 245.733L71.9284 221.973L82.9484 215.723C88.9984 212.283 94.6184 209.473 95.4284 209.473C95.5184 209.473 95.6084 209.483 95.6984 209.503C95.6784 209.503 95.6684 209.493 95.6484 209.493C96.6284 209.703 96.8984 211.453 96.8984 217.083C96.8984 219.753 96.9284 221.493 97.0484 222.573ZM302.878 174.973C302.668 174.203 300.958 172.903 298.898 171.973L294.898 170.173V154.823C294.898 143.223 295.208 139.463 296.148 139.453C296.838 139.443 298.408 138.653 299.648 137.693C301.588 136.203 302.008 134.603 302.738 125.973C302.898 124.103 303.028 122.333 303.128 120.803C303.208 126.703 303.208 136.903 303.108 148.443L302.878 174.973ZM394.218 279.603C394.678 276.413 394.808 268.183 394.668 253.943L394.398 228.483L394.898 228.813V254.483C394.898 270.753 394.818 276.903 394.218 279.603ZM326.898 77.2427V134.293C326.898 87.6527 326.708 78.2327 325.618 77.5227L326.898 77.2427ZM393.148 281.683C392.188 282.523 382.628 288.163 371.898 294.213C326.048 320.083 277.888 347.123 269.438 351.743C278.718 346.663 336.098 314.433 372.558 293.803C382.678 288.083 391.538 282.803 393.468 281.363C393.368 281.483 393.258 281.593 393.148 281.683ZM103.358 224.153C103.918 226.173 103.908 230.733 103.898 239.983C103.898 241.203 103.898 242.513 103.898 243.903C103.898 233.773 103.708 227.083 103.358 224.153ZM257.368 163.703C257.658 165.203 258.158 166.073 258.978 166.703L257.398 165.903L257.368 163.703ZM302.948 115.623C301.608 116.063 295.948 118.583 288.458 122.073C296.718 118.193 302.688 115.453 302.898 115.453C302.918 115.463 302.928 115.513 302.948 115.623ZM251.658 189.783C259.378 193.343 264.628 195.733 276.898 201.273C285.418 205.123 299.598 211.753 308.398 216.013C299.598 211.753 285.418 205.123 276.898 201.283C266.338 196.513 258.048 192.743 251.658 189.783ZM272.518 129.603L258.228 136.383L256.988 136.973L256.978 138.963L256.948 136.973L272.518 129.603ZM327.398 224.533C326.398 224.263 322.828 222.743 318.218 220.633C322.828 222.743 326.398 224.263 327.398 224.523C327.598 224.573 327.908 224.683 328.348 224.843C327.918 224.683 327.598 224.583 327.398 224.533Z" fill="#A8A8A8"/>
</svg>
