
<svg width="3000" height="1939" viewBox="0 0 3000 1939" fill="none" xmlns="http://www.w3.org/2000/svg">
    <path d="M569.005 1032.36H508.534L500.449 1057.99H450L514.013 886.096H563.326L627.606 1057.99H577.358L569.005 1032.36ZM558.114 998.639L538.669 938.086L519.492 998.639H558.114ZM628.007 972.477C628.007 911.455 669.034 883.888 711.197 883.888C744.406 883.888 781.157 900.281 790.378 948.256L742.936 956.084C738.459 935.877 724.895 927.848 711.197 927.848C691.485 927.848 677.787 944.241 677.787 972.477C677.787 1000.51 691.552 1016.91 711.197 1016.91C725.162 1016.91 738.727 1008.61 743.203 987.934L790.378 996.03C781.357 1044.21 744.607 1060.87 711.197 1060.87C669.034 1060.8 628.007 1035.17 628.007 972.477ZM815.97 886.096H864.08V950.464H912.657V886.096H961.035V1057.99H912.657V992.684H864.08V1057.99H815.97V886.096ZM995.179 886.096H1110.38V928.584H1043.02V954.01H1106.1V989.138H1043.02V1015.7H1110.38V1057.99H995.179V886.096ZM1166.37 928.584H1129.35V886.096H1251.23V928.584H1214.48V1057.99H1166.37V928.584ZM1275.35 886.096H1390.55V928.584H1323.2V954.01H1386.27V989.138H1323.2V1015.7H1390.55V1057.99H1275.35V886.096ZM1509.15 1057.99L1486.1 1006H1467.86V1057.99H1419.48V886.096H1480.62C1537.55 886.096 1557.46 907.909 1557.46 944.977C1557.46 966.322 1548.91 984.856 1529 995.762L1562.88 1057.99H1509.15ZM1481.83 972.009C1502 972.009 1508.89 963.913 1508.89 948.992C1508.89 934.272 1502 926.175 1481.83 926.175H1467.59V972.009H1481.83ZM1593.95 987.934C1603.17 942.1 1635.18 919.551 1667.92 919.551C1689.97 919.551 1708.21 931.194 1711.28 952.337L1727.39 878H1753.91L1715.76 1057.72H1689.23L1695.38 1030.62C1683.55 1051.5 1663.64 1061 1643.66 1061C1608.92 1061.07 1584.46 1035.91 1593.95 987.934ZM1704.67 988.201C1710.35 960.166 1697.05 942.167 1671.46 942.167C1645.13 942.167 1625.22 961.37 1619.54 991.815C1614.33 1020.52 1626.89 1038.32 1652.75 1038.32C1679.08 1038.25 1698.52 1019.05 1704.67 988.201ZM1754.18 994.826L1769.62 922.161H1796.14L1780.51 995.026C1774.56 1023.73 1782.65 1037.31 1807.57 1037.31C1833.43 1037.31 1847.66 1020.72 1854.28 989.339L1868.51 922.161H1895.04L1866.1 1057.99H1839.58L1845.72 1031.89C1836.03 1048.96 1818.73 1060.6 1797.15 1060.6C1758.46 1060.6 1744.96 1037.58 1754.18 994.826ZM1933.39 886.096H1979.63L2037.7 981.31V886.096H2085.61V1057.99H2039.63L1981.57 962.575V1057.99H1933.39V886.096ZM2119.75 886.096H2234.95V928.584H2167.59V954.01H2230.67V989.138H2167.59V1015.7H2234.95V1057.99H2119.75V886.096ZM2261.47 978.7V886.096H2309.58V978.432C2309.58 1006 2316.93 1017.37 2335.64 1017.37C2354.35 1017.37 2361.7 1006 2361.7 978.7V886.096H2410.08V978.901C2410.08 1033.97 2385.42 1060.33 2335.64 1060.33C2285.66 1060.33 2261.47 1034.5 2261.47 978.7ZM2441.89 886.096H2550V928.116H2489.8V959.898H2545.72V998.572H2489.8V1057.92H2441.89V886.096Z" fill="white"/>
</svg>
