<svg width="3000" height="1939" viewBox="0 0 3000 1939" fill="none" xmlns="http://www.w3.org/2000/svg">
    <path d="M546.625 1099L617.825 867.8C627.025 838.6 651.025 824.6 676.225 824.6C701.825 824.6 725.825 838.6 735.025 867.8L806.225 1099H746.625L731.025 1043.8L621.825 1044.2L606.225 1099H546.625ZM667.825 885L637.025 991.8H715.825L685.425 885C683.825 879.4 681.425 877 676.625 877C672.225 877 669.425 879.4 667.825 885ZM835.513 1001V945.4H789.113V897H837.112L847.513 845H895.513V897H1059.91V945.4H895.513V995.8C895.513 1039.4 911.513 1053.4 966.313 1053.4C1003.91 1053.4 1034.31 1047.8 1062.71 1041.8L1074.31 1089.4C1043.91 1097 1003.11 1104.2 961.513 1104.2C875.513 1104.2 835.513 1077 835.513 1001ZM1070.78 984.2V897H1130.38V975.4C1130.38 1014.6 1151.18 1029.8 1212.38 1029.8C1251.58 1029.8 1291.58 1023.8 1332.38 1014.2V897H1392.38V1059C1392.38 1147.8 1342.38 1176.6 1229.58 1176.6C1179.58 1176.6 1123.98 1169 1085.18 1158.2L1096.38 1111.8C1139.98 1123 1185.18 1129.8 1233.18 1129.8C1310.78 1129.8 1337.58 1112.2 1335.18 1062.6L1333.98 1055C1294.38 1068.6 1246.38 1079.4 1198.38 1079.4C1106.38 1079.4 1070.78 1050.2 1070.78 984.2ZM1470.75 1173H1410.75V897H1463.15L1467.95 927.8C1508.75 909.4 1558.75 893 1610.35 893C1685.95 893 1730.35 922.6 1730.35 995.8C1730.35 1075 1672.35 1103 1584.35 1103C1543.95 1103 1503.95 1098.2 1470.75 1092.2V1173ZM1599.55 942.6C1561.95 942.6 1516.35 952.6 1470.75 967V1046.6C1505.95 1050.6 1549.95 1054.6 1587.55 1054.6C1641.55 1054.6 1670.75 1039 1670.75 997C1670.75 958.6 1650.35 942.6 1599.55 942.6ZM1776.06 871.4C1756.86 871.4 1740.86 855.8 1740.86 836.2C1740.86 817 1756.86 801 1776.06 801C1795.26 801 1810.86 817 1810.86 836.2C1810.86 855.8 1795.26 871.4 1776.06 871.4ZM1747.66 901H1804.46V1099H1747.66V901ZM1821.17 997.4C1821.17 923 1872.37 891.8 1994.77 891.8C2045.17 891.8 2093.57 898.6 2128.37 907L2115.97 955C2087.97 949 2047.57 942.6 1986.37 942.6C1909.57 942.6 1880.77 955 1880.77 997.4C1880.77 1040.2 1909.57 1052.6 1986.37 1052.6C2047.57 1052.6 2087.97 1046.2 2115.97 1040.2L2128.37 1088.6C2093.57 1096.6 2047.17 1103.4 1994.77 1103.4C1872.37 1103.4 1821.17 1071.8 1821.17 997.4ZM2440.41 906.6V1099H2388.01L2383.21 1068.6C2341.61 1087 2292.01 1103 2240.81 1103C2166.41 1103 2120.81 1073.4 2120.81 999.4C2120.81 918.6 2182.41 893 2273.21 893C2339.21 893 2396.81 899.8 2440.41 906.6ZM2180.41 997.4C2180.41 1037.8 2201.61 1053.4 2252.01 1053.4C2292.41 1053.4 2336.01 1043.4 2380.41 1028.6V948.2C2346.01 944.2 2303.61 941.4 2267.21 941.4C2211.61 941.4 2180.41 956.6 2180.41 997.4Z"
          fill="white"/>
</svg>
