<svg width="3000" height="1939" viewBox="0 0 3000 1939" fill="none" xmlns="http://www.w3.org/2000/svg">
    <path d="M1144.21 1052.28L1087.92 903.734H1027.03L1115.54 1116.1H1172.89L1262.1 903.734H1200.15L1144.21 1052.28ZM1337.86 903.734H1281.93V1115.75H1337.86V903.734ZM1309.9 819C1291.49 819 1277.68 828.927 1277.68 847.717C1277.68 866.508 1291.49 876.435 1309.9 876.435C1328.31 876.435 1342.11 866.153 1342.11 847.717C1342.11 829.282 1327.24 819 1309.9 819ZM1894.03 903.734H1838.1V1115.75H1894.03V903.734ZM1866.41 819C1848 819 1834.2 828.927 1834.2 847.717C1834.2 866.508 1848 876.435 1866.41 876.435C1884.82 876.435 1898.63 866.153 1898.63 847.717C1898.63 829.282 1883.76 819 1866.41 819ZM2031.74 899.479C1967.66 899.479 1923.41 944.505 1923.41 1009.74C1923.41 1074.97 1966.95 1120 2033.86 1120C2100.77 1120 2125.2 1090.57 2131.93 1050.87H2083.07C2075.28 1068.24 2059.35 1077.1 2035.28 1077.1C2011.21 1077.1 1980.76 1057.25 1979.7 1022.5H2136.18C2142.9 948.405 2101.84 899.479 2031.74 899.479ZM1980.41 985.631C1983.59 955.496 2004.13 939.187 2033.16 939.187C2062.19 939.187 2082.36 957.269 2084.49 985.631H1980.41ZM2215.47 961.523C2215.47 947.342 2229.28 939.187 2252.64 939.187C2276.01 939.187 2287.69 947.696 2294.06 962.232L2344.34 953.369C2334.07 920.397 2294.77 899.834 2250.87 899.834C2206.98 899.834 2160.6 925.006 2159.89 963.296C2159.18 1048.38 2293 1013.64 2293 1055.83C2293 1098.02 2278.49 1079.23 2253.35 1079.23C2228.22 1079.23 2211.22 1067.53 2203.44 1050.51H2152.46C2158.12 1088.09 2197.06 1119.29 2253.35 1119.29C2309.64 1119.29 2350 1093.06 2350 1050.51C2350 965.423 2215.83 1003.36 2215.83 961.168L2215.47 961.523ZM1731.18 993.786C1760.92 973.577 1783.58 944.151 1795.97 910.47L1799.16 901.961H1738.97C1738.97 901.961 1718.09 963.65 1663.92 963.65V834.6H1607.98V1115.75H1663.92V1023.92C1708.17 1034.91 1741.1 1071.43 1748.53 1115.75H1805.17C1799.51 1066.82 1772.6 1021.79 1731.54 993.786H1731.18ZM1576.82 984.568L1575.41 976.768C1564.79 925.36 1530.09 899.479 1473.45 899.479C1416.81 899.479 1366.89 944.86 1366.89 1009.74C1366.89 1074.62 1412.2 1120 1473.45 1120C1534.7 1120 1565.14 1092.35 1575.05 1042.71L1576.47 1034.91H1525.49C1518.41 1058.67 1500 1072.85 1476.28 1072.85C1452.56 1072.85 1423.18 1047.67 1423.18 1009.74C1423.18 971.804 1444.77 946.278 1476.28 946.278C1507.79 946.278 1518.06 959.396 1526.2 984.568H1576.82ZM974.99 905.152V955.496C907.018 955.85 850.375 1005.49 838.339 1070.37H857.102V1120H767.535V1070.37H786.298C774.615 1005.49 717.972 956.205 650 955.496V905.152C718.68 905.506 778.863 942.733 812.141 998.04C845.065 942.733 905.602 905.506 974.636 905.152H974.99Z"
          fill="white"/>
</svg>
