<svg width="3000" height="1939" viewBox="0 0 3000 1939" fill="none" xmlns="http://www.w3.org/2000/svg">
    <path d="M590.075 1072C588.275 1072 586.675 1071.4 585.275 1070.2C584.075 1068.8 583.475 1067.2 583.475 1065.4C583.475 1064.6 583.675 1063.9 584.075 1063.3L652.475 871.3C653.075 869.1 654.375 867 656.375 865C658.575 863 661.475 862 665.075 862H719.975C723.775 862 726.675 863 728.675 865C730.675 867 731.975 869.1 732.575 871.3L801.275 1063.3C801.475 1063.9 801.575 1064.6 801.575 1065.4C801.575 1067.2 800.875 1068.8 799.475 1070.2C798.275 1071.4 796.775 1072 794.975 1072H748.775C745.375 1072 742.875 1071.2 741.275 1069.6C739.675 1068 738.575 1066.5 737.975 1065.1L728.675 1039.9H656.375L647.075 1065.1C646.475 1066.5 645.375 1068 643.775 1069.6C642.375 1071.2 639.875 1072 636.275 1072H590.075ZM670.175 989.2H714.875L692.375 921.7L670.175 989.2ZM829.281 1072C827.281 1072 825.481 1071.3 823.881 1069.9C822.281 1068.3 821.481 1066.4 821.481 1064.2V869.8C821.481 867.6 822.281 865.8 823.881 864.4C825.481 862.8 827.281 862 829.281 862H911.481C930.881 862 947.681 865.2 961.881 871.6C976.081 877.8 987.281 887 995.481 899.2C1003.68 911.4 1008.08 926.4 1008.68 944.2C1009.08 952.8 1009.28 960.4 1009.28 967C1009.28 973.6 1009.08 981.1 1008.68 989.5C1007.88 1008.3 1003.58 1023.8 995.781 1036C988.181 1048.2 977.381 1057.3 963.381 1063.3C949.381 1069.1 932.581 1072 912.981 1072H829.281ZM885.981 1021H911.481C918.081 1021 923.681 1019.9 928.281 1017.7C932.881 1015.5 936.481 1012.1 939.081 1007.5C941.681 1002.7 943.081 996.6 943.281 989.2C943.481 983.4 943.581 978.2 943.581 973.6C943.781 969 943.781 964.4 943.581 959.8C943.581 955.2 943.481 950.1 943.281 944.5C942.881 933.5 939.681 925.5 933.681 920.5C927.881 915.5 919.981 913 909.981 913H885.981V1021ZM1047.54 1072C1045.54 1072 1043.74 1071.3 1042.14 1069.9C1040.54 1068.3 1039.74 1066.4 1039.74 1064.2V869.8C1039.74 867.6 1040.54 865.8 1042.14 864.4C1043.74 862.8 1045.54 862 1047.54 862H1087.44C1091.04 862 1093.64 862.9 1095.24 864.7C1096.84 866.3 1097.94 867.5 1098.54 868.3L1160.34 967.6V869.8C1160.34 867.6 1161.14 865.8 1162.74 864.4C1164.34 862.8 1166.14 862 1168.14 862H1213.44C1215.64 862 1217.44 862.8 1218.84 864.4C1220.44 865.8 1221.24 867.6 1221.24 869.8V1064.2C1221.24 1066.4 1220.44 1068.3 1218.84 1069.9C1217.44 1071.3 1215.64 1072 1213.44 1072H1173.84C1170.04 1072 1167.34 1071.2 1165.74 1069.6C1164.14 1067.8 1163.04 1066.5 1162.44 1065.7L1100.64 972.1V1064.2C1100.64 1066.4 1099.84 1068.3 1098.24 1069.9C1096.84 1071.3 1095.04 1072 1092.84 1072H1047.54ZM1326.45 1072C1324.45 1072 1322.65 1071.3 1321.05 1069.9C1319.45 1068.3 1318.65 1066.4 1318.65 1064.2V869.8C1318.65 867.6 1319.45 865.8 1321.05 864.4C1322.65 862.8 1324.45 862 1326.45 862H1471.05C1473.25 862 1475.15 862.8 1476.75 864.4C1478.35 865.8 1479.15 867.6 1479.15 869.8V907.9C1479.15 909.9 1478.35 911.7 1476.75 913.3C1475.15 914.9 1473.25 915.7 1471.05 915.7H1381.95V948.7H1465.05C1467.25 948.7 1469.15 949.5 1470.75 951.1C1472.35 952.5 1473.15 954.3 1473.15 956.5V994.3C1473.15 996.5 1472.35 998.4 1470.75 1000C1469.15 1001.4 1467.25 1002.1 1465.05 1002.1H1381.95V1064.2C1381.95 1066.4 1381.15 1068.3 1379.55 1069.9C1378.15 1071.3 1376.35 1072 1374.15 1072H1326.45ZM1485.97 1072C1484.17 1072 1482.57 1071.4 1481.17 1070.2C1479.97 1068.8 1479.37 1067.2 1479.37 1065.4C1479.37 1064.6 1479.57 1063.9 1479.97 1063.3L1548.37 871.3C1548.97 869.1 1550.27 867 1552.27 865C1554.47 863 1557.37 862 1560.97 862H1615.87C1619.67 862 1622.57 863 1624.57 865C1626.57 867 1627.87 869.1 1628.47 871.3L1697.17 1063.3C1697.37 1063.9 1697.47 1064.6 1697.47 1065.4C1697.47 1067.2 1696.77 1068.8 1695.37 1070.2C1694.17 1071.4 1692.67 1072 1690.87 1072H1644.67C1641.27 1072 1638.77 1071.2 1637.17 1069.6C1635.57 1068 1634.47 1066.5 1633.87 1065.1L1624.57 1039.9H1552.27L1542.97 1065.1C1542.37 1066.5 1541.27 1068 1539.67 1069.6C1538.27 1071.2 1535.77 1072 1532.17 1072H1485.97ZM1566.07 989.2H1610.77L1588.27 921.7L1566.07 989.2ZM1725.48 1072C1723.28 1072 1721.38 1071.3 1719.78 1069.9C1718.18 1068.3 1717.38 1066.4 1717.38 1064.2V869.8C1717.38 867.6 1718.18 865.8 1719.78 864.4C1721.38 862.8 1723.28 862 1725.48 862H1765.38C1768.98 862 1771.68 863 1773.48 865C1775.28 867 1776.48 868.4 1777.08 869.2L1825.08 952.6L1873.08 869.2C1873.68 868.4 1874.88 867 1876.68 865C1878.48 863 1881.18 862 1884.78 862H1924.68C1926.88 862 1928.68 862.8 1930.08 864.4C1931.68 865.8 1932.48 867.6 1932.48 869.8V1064.2C1932.48 1066.4 1931.68 1068.3 1930.08 1069.9C1928.68 1071.3 1926.88 1072 1924.68 1072H1879.68C1877.48 1072 1875.58 1071.3 1873.98 1069.9C1872.58 1068.3 1871.88 1066.4 1871.88 1064.2V967L1844.88 1014.4C1843.88 1016 1842.58 1017.6 1840.98 1019.2C1839.38 1020.8 1837.08 1021.6 1834.08 1021.6H1815.78C1812.98 1021.6 1810.78 1020.8 1809.18 1019.2C1807.58 1017.6 1806.28 1016 1805.28 1014.4L1778.28 967V1064.2C1778.28 1066.4 1777.48 1068.3 1775.88 1069.9C1774.48 1071.3 1772.68 1072 1770.48 1072H1725.48ZM1977.72 1072C1975.72 1072 1973.92 1071.3 1972.32 1069.9C1970.72 1068.3 1969.92 1066.4 1969.92 1064.2V869.8C1969.92 867.6 1970.72 865.8 1972.32 864.4C1973.92 862.8 1975.72 862 1977.72 862H2028.72C2030.92 862 2032.72 862.8 2034.12 864.4C2035.72 865.8 2036.52 867.6 2036.52 869.8V1064.2C2036.52 1066.4 2035.72 1068.3 2034.12 1069.9C2032.72 1071.3 2030.92 1072 2028.72 1072H1977.72ZM2081.43 1072C2079.43 1072 2077.63 1071.3 2076.03 1069.9C2074.43 1068.3 2073.63 1066.4 2073.63 1064.2V869.8C2073.63 867.6 2074.43 865.8 2076.03 864.4C2077.63 862.8 2079.43 862 2081.43 862H2131.23C2133.43 862 2135.33 862.8 2136.93 864.4C2138.53 865.8 2139.33 867.6 2139.33 869.8V1018.6H2226.03C2228.23 1018.6 2230.13 1019.4 2231.73 1021C2233.33 1022.4 2234.13 1024.2 2234.13 1026.4V1064.2C2234.13 1066.4 2233.33 1068.3 2231.73 1069.9C2230.13 1071.3 2228.23 1072 2226.03 1072H2081.43ZM2288.93 1072C2286.73 1072 2284.83 1071.3 2283.23 1069.9C2281.83 1068.3 2281.13 1066.4 2281.13 1064.2V1002.4L2212.73 871.3C2212.53 870.9 2212.33 870.5 2212.13 870.1C2211.93 869.5 2211.83 869 2211.83 868.6C2211.83 866.8 2212.43 865.3 2213.63 864.1C2215.03 862.7 2216.63 862 2218.43 862H2265.23C2268.83 862 2271.53 862.9 2273.33 864.7C2275.13 866.5 2276.33 867.9 2276.93 868.9L2313.53 937.9L2350.13 868.9C2350.53 867.9 2351.63 866.5 2353.43 864.7C2355.23 862.9 2357.93 862 2361.53 862H2408.63C2410.23 862 2411.63 862.7 2412.83 864.1C2414.23 865.3 2414.93 866.8 2414.93 868.6C2414.93 869 2414.83 869.5 2414.63 870.1C2414.63 870.5 2414.53 870.9 2414.33 871.3L2345.63 1002.4V1064.2C2345.63 1066.4 2344.83 1068.3 2343.23 1069.9C2341.83 1071.3 2340.03 1072 2337.83 1072H2288.93Z" fill="white"/>
</svg>
