<svg width="3000" height="1939" viewBox="0 0 3000 1939" fill="none" xmlns="http://www.w3.org/2000/svg">
    <path d="M450 1066.95H643.781V872H450V1067V1066.95ZM592.445 889.297H626.556V923.552L498.627 1018.01L592.493 889.297H592.445ZM467.177 889.297H571.107L467.177 1031.92V889.297ZM626.556 945.053V1049.7H484.837L626.556 945.053ZM853.433 875.237L804.177 954.909L754.921 875.237H710.504V1063.71H750.905V941.477L803.113 1021.2H804.177L856.917 940.704V1063.71H897.85V875.237H853.433ZM960.267 875.237V1063.71H1102.91V1026.85H1001.2V987.232H1089.55V950.367H1001.2V912.102H1101.6V875.237H960.267ZM1143.5 875.237V913.503H1200.5V1063.71H1241.72V913.503H1298.72V875.237H1143.5ZM1347.59 875.237H1433.23C1457.03 875.237 1475.52 881.953 1487.86 894.37C1498.26 904.903 1503.92 919.687 1503.92 937.467V937.999C1503.92 968.437 1487.61 987.522 1463.76 996.46L1509.53 1063.81H1461.39L1421.23 1003.47H1388.86V1063.81H1347.64V875.237H1347.59ZM1430.57 966.794C1450.65 966.794 1462.16 956.068 1462.16 940.124V939.593C1462.16 921.813 1449.82 912.633 1429.79 912.633H1388.81V966.746H1430.57V966.794ZM1550.22 970.031V969.5C1550.22 915.918 1592.22 872 1650.04 872C1707.86 872 1749.33 915.339 1749.33 968.969V969.5C1749.33 1023.08 1707.28 1066.95 1649.51 1066.95C1591.74 1066.95 1550.22 1023.61 1550.22 969.983M1706.26 970.031V969.5C1706.26 937.177 1682.7 910.217 1649.51 910.217C1616.32 910.217 1593.33 936.597 1593.33 968.92V969.452C1593.33 1001.73 1616.85 1028.69 1650.09 1028.69C1683.33 1028.69 1706.31 1002.31 1706.31 969.983M1799.41 875.237H1875.95C1920.66 875.237 1947.71 901.907 1947.71 940.414V940.946C1947.71 984.574 1913.98 1007.23 1871.98 1007.23H1840.63V1063.81H1799.41V875.237ZM1873.29 970.321C1893.9 970.321 1905.95 957.953 1905.95 941.767V941.236C1905.95 922.634 1893.08 912.681 1872.52 912.681H1840.68V970.321H1873.34H1873.29ZM1983.32 970.031V969.5C1983.32 915.918 2025.36 872 2083.18 872C2141 872 2182.47 915.339 2182.47 968.969V969.5C2182.47 1023.08 2140.42 1066.95 2082.6 1066.95C2024.78 1066.95 1983.32 1023.61 1983.32 969.983M2139.36 970.031V969.5C2139.36 937.177 2115.79 910.217 2082.6 910.217C2049.41 910.217 2026.38 936.597 2026.38 968.92V969.452C2026.38 1001.73 2049.94 1028.69 2083.13 1028.69C2116.33 1028.69 2139.31 1002.31 2139.31 969.983M2228.48 875.237V1063.71H2363.09V1026.03H2269.71V875.237H2228.48ZM2407.36 875.237V1063.71H2550V1026.85H2448.3V987.232H2536.65V950.367H2448.3V912.102H2548.65V875.237H2407.36Z" fill="white"/>
</svg>
