<svg width="3000" height="1939" viewBox="0 0 3000 1939" fill="none" xmlns="http://www.w3.org/2000/svg">
    <path d="M1041.2 833.235V805.483H610.51V1133.52H1041.2V1102.92H1100.99V1194H550V745H1100.99V833.235H1041.2ZM918.752 1003.3C918.752 968.433 902.379 959.182 877.463 953.49L831.903 942.816C799.157 934.989 793.462 932.854 793.462 923.604V916.488C793.462 906.526 809.123 905.815 834.039 905.815C858.955 905.815 881.023 907.238 915.905 911.507C918.04 897.987 918.04 877.352 915.905 863.832C882.447 858.139 858.955 856.716 831.903 856.716C773.529 856.716 732.952 870.236 732.952 907.238V929.296C732.952 964.875 751.461 977.683 774.953 982.664L820.513 993.338C856.107 1001.16 858.955 1000.45 858.955 1010.42V1018.95C858.955 1028.92 841.87 1029.63 819.09 1029.63C796.309 1029.63 768.546 1028.2 733.664 1024.65C731.529 1038.17 731.529 1060.23 733.664 1073.74C763.563 1077.3 795.598 1078.73 819.801 1078.73C881.023 1078.73 918.752 1064.49 918.752 1028.2V1003.3ZM1392.86 999.03C1409.95 1023.22 1424.18 1050.26 1435.58 1075.17C1417.78 1076.59 1389.3 1076.59 1371.51 1075.17C1360.83 1053.11 1348.01 1028.2 1332.35 1005.43H1290.35V1075.17C1272.56 1076.59 1248.35 1076.59 1230.55 1075.17V860.986H1339.47C1396.42 860.986 1432.02 875.217 1432.02 915.065V951.355C1432.02 976.971 1417.78 991.203 1393.57 999.742M1371.51 929.296C1371.51 912.219 1356.56 910.084 1338.05 910.084H1290.35V956.336H1338.05C1356.56 956.336 1371.51 954.201 1371.51 937.124V929.296ZM1720.33 1075.17C1703.24 1076.59 1675.48 1076.59 1658.39 1075.17L1644.87 1039.59H1557.31L1543.78 1075.17C1526.7 1076.59 1499.64 1076.59 1481.85 1075.17L1572.26 860.986C1590.05 859.563 1612.12 859.563 1629.92 860.986L1720.33 1075.17ZM1626.36 991.914L1600.73 925.027L1575.1 991.914H1626.36ZM1801.48 1075.17C1818.56 1076.59 1844.9 1076.59 1861.28 1075.17V908.661H1935.31C1936.74 895.141 1936.74 874.506 1935.31 860.274H1727.44C1726.02 873.794 1726.02 894.429 1727.44 908.661H1801.48V1075.17ZM2143.18 860.986V1004.72C2143.18 1026.07 2123.96 1028.92 2096.91 1028.92C2069.86 1028.92 2050.64 1026.07 2050.64 1004.72V860.986C2036.4 859.563 2005.79 859.563 1990.84 860.986V1017.53C1990.84 1063.07 2033.55 1079.44 2096.91 1079.44C2160.27 1079.44 2202.27 1063.78 2202.27 1017.53V860.986C2191.59 859.563 2157.42 859.563 2143.18 860.986ZM2450 1028.2V1003.3C2450 968.433 2433.63 959.182 2408.71 953.49L2363.15 942.816C2330.4 934.989 2324.71 932.854 2324.71 923.604V916.488C2324.71 906.526 2340.37 905.815 2365.29 905.815C2390.2 905.815 2412.27 907.238 2447.15 911.507C2449.29 897.987 2449.29 877.352 2447.15 863.832C2413.69 858.139 2390.2 856.716 2363.15 856.716C2304.78 856.716 2264.2 870.236 2264.2 907.238V929.296C2264.2 964.875 2282.71 977.683 2306.2 982.664L2351.76 993.338C2387.35 1001.16 2390.2 1000.45 2390.2 1010.42V1018.95C2390.2 1028.92 2373.12 1029.63 2350.34 1029.63C2327.56 1029.63 2299.79 1028.2 2264.91 1024.65C2262.78 1038.17 2262.78 1060.23 2264.91 1073.74C2294.81 1077.3 2326.85 1078.73 2351.05 1078.73C2412.27 1078.73 2450 1064.49 2450 1028.2ZM1175.03 908.661C1176.45 895.141 1176.45 874.506 1175.03 860.274H967.16C965.736 873.794 965.736 894.429 967.16 908.661H1041.2V1075.17C1058.28 1076.59 1084.62 1076.59 1100.99 1075.17V908.661H1175.03Z" fill="white"/>
</svg>
